# xmcd
#
# Track frame offsets:
#	150
#	10950
#	25725
#	35850
#	48675
#	64500
#	83250
#	97050
#	111975
#	125332
#	142962
#	161707
#	173182
#	186150
#	200925
#	203587
#	205355
#	209667
#	213012
#	215820
#	222375
#	225412
#	230487
#	236025
#	238947
#	241945
#	244867
#	250992
#	255627
#
# Disc length: 3460 seconds
#
# Revision: 1
# Processed by: cddbd v1.5.2PL0 Copyright (c) Steve Scherf et al.
# Submitted via: audiograbber 1.83.01
#
DISCID=b70d821d
DTITLE=Various Artist - CDX 55 April 1993
DYEAR=1993
DGENRE=Country
TTITLE0=Kim Perry - Are There Any More At Home Like You
TTITLE1=Pam Tillis - Cleopatra, Queen Of Denial
TTITLE2=The Kentucky Headhunters - Dixie Fried
TTITLE3=Sammy Kershaw - Haunted Heart
TTITLE4=Paul Hale - I'm Losing You All Over Again
TTITLE5=Lari White - Lead Me Not
TTITLE6=John Anderson - Money In The Bank
TTITLE7=Dolly Parton - More Where That Came From
TTITLE8=Mac McAnally - No That Long Ago
TTITLE9=Kathy Mattea - Seeds
TTITLE10=Billy Ray Cyrus - Some Gave All
TTITLE11=The Marshall Tucker Band - Walk Outside The Lines
TTITLE12=George Strait - When Did You Stop Loving Me
TTITLE13=Travis Tritt - T-R-O-U-B-L-E (Dance Mix)
TTITLE14=John Brannen, Toby Keith and Shania Twain - Interview
TTITLE15=John Brannen, Toby Keith and Shania Twain - Interview
TTITLE16=John Brannen, Toby Keith and Shania Twain - Interview
TTITLE17=John Brannen, Toby Keith and Shania Twain - Interview
TTITLE18=John Brannen, Toby Keith and Shania Twain - Interview
TTITLE19=John Brannen, Toby Keith and Shania Twain - Interview
TTITLE20=John Brannen, Toby Keith and Shania Twain - Interview
TTITLE21=John Brannen, Toby Keith and Shania Twain - Interview
TTITLE22=John Brannen, Toby Keith and Shania Twain - Interview
TTITLE23=John Brannen, Toby Keith and Shania Twain - Interview
TTITLE24=John Brannen, Toby Keith and Shania Twain - Interview
TTITLE25=John Brannen, Toby Keith and Shania Twain - Interview
TTITLE26=John Brannen, Toby Keith and Shania Twain - Interview
TTITLE27=John Brannen, Toby Keith and Shania Twain - Interview
TTITLE28=John Brannen, Toby Keith and Shania Twain - Interview
EXTD=
EXTT0=
EXTT1=
EXTT2=
EXTT3=
EXTT4=
EXTT5=
EXTT6=
EXTT7=
EXTT8=
EXTT9=
EXTT10=
EXTT11=
EXTT12=
EXTT13=
EXTT14=
EXTT15=
EXTT16=
EXTT17=
EXTT18=
EXTT19=
EXTT20=
EXTT21=
EXTT22=
EXTT23=
EXTT24=
EXTT25=
EXTT26=
EXTT27=
EXTT28=
PLAYORDER=
